# Blender 3.6.5
# www.blender.org
mtllib krampus_finger.mtl
o Hand.001
v 1.739049 1.679724 0.016188
v 1.739049 1.676824 0.024157
v 1.739049 1.669533 0.029187
v 1.739049 1.660636 0.029357
v 1.739049 1.653531 0.024602
v 1.739049 1.650933 0.016738
v 1.739049 1.653833 0.008770
v 1.739049 1.661124 0.003739
v 1.739049 1.670021 0.003569
v 1.739049 1.677125 0.008324
v 1.810816 1.673395 0.020878
v 1.810816 1.675467 0.016227
v 1.810816 1.668242 0.023842
v 1.810816 1.661975 0.023988
v 1.810816 1.656990 0.021260
v 1.810816 1.655189 0.016699
v 1.810816 1.657261 0.012048
v 1.810816 1.662415 0.009084
v 1.810816 1.668681 0.008938
v 1.810816 1.673667 0.011667
v 1.834062 1.669617 0.018474
v 1.834062 1.670309 0.016913
v 1.834062 1.666901 0.019716
v 1.834062 1.663584 0.019755
v 1.834062 1.660933 0.018576
v 1.834062 1.660281 0.016948
v 1.834062 1.661600 0.015125
v 1.834062 1.663966 0.014044
v 1.834062 1.666878 0.014010
v 1.834062 1.669157 0.015024
v 1.666336 1.661241 0.006996
v 1.666336 1.654253 0.010705
v 1.666336 1.669415 0.025931
v 1.666336 1.676404 0.022222
v 1.666336 1.679162 0.016314
v 1.666336 1.676636 0.010463
v 1.666336 1.669791 0.006903
v 1.666336 1.654020 0.022464
v 1.666336 1.660865 0.026023
v 1.666336 1.651494 0.016613
v 1.720422 1.661806 0.004905
v 1.720422 1.668850 0.028021
v 1.720422 1.675074 0.009137
v 1.720422 1.655583 0.023789
v 1.720422 1.655783 0.009433
v 1.720422 1.674873 0.023494
v 1.720422 1.677250 0.016281
v 1.720422 1.669174 0.004792
v 1.720422 1.661482 0.028134
v 1.720422 1.653406 0.016646
v 1.729616 1.661072 0.003583
v 1.729616 1.669584 0.029344
v 1.729616 1.677271 0.008224
v 1.729616 1.653386 0.024702
v 1.729616 1.653692 0.008675
v 1.729616 1.676965 0.024252
v 1.729616 1.679901 0.016185
v 1.729616 1.670079 0.003411
v 1.729616 1.660578 0.029516
v 1.729616 1.650756 0.016742
v 1.753825 1.674645 0.022699
v 1.753825 1.656012 0.010228
v 1.753825 1.655767 0.023059
v 1.753825 1.653661 0.016686
v 1.753825 1.674889 0.009867
v 1.753825 1.676995 0.016240
v 1.753825 1.668736 0.026775
v 1.753825 1.661525 0.026913
v 1.753825 1.661921 0.006151
v 1.753825 1.669131 0.006013
v 1.746437 1.676255 0.023777
v 1.746437 1.654401 0.009150
v 1.746437 1.654114 0.024200
v 1.746437 1.676542 0.008727
v 1.746437 1.669325 0.028558
v 1.746437 1.661332 0.004369
v 1.746437 1.651644 0.016725
v 1.746437 1.679012 0.016202
v 1.746437 1.660868 0.028720
v 1.746437 1.669789 0.004207
v 1.659831 1.653232 0.009370
v 1.659831 1.677425 0.023557
v 1.659831 1.680382 0.016357
v 1.659864 1.670487 0.004810
v 1.659831 1.660543 0.028113
v 1.659831 1.650274 0.016569
v 1.659831 1.660810 0.004879
v 1.659831 1.669847 0.028047
v 1.659831 1.677590 0.009198
v 1.659831 1.653067 0.023729
v 1.653139 1.652224 0.008578
v 1.653139 1.678433 0.024349
v 1.653139 1.681623 0.016363
v 1.653139 1.671030 0.003542
v 1.653139 1.660167 0.029385
v 1.653139 1.649770 0.016564
v 1.653139 1.659753 0.003604
v 1.653139 1.670237 0.029323
v 1.653139 1.678589 0.008415
v 1.653139 1.652068 0.024511
v 1.815682 1.668246 0.023703
v 1.815682 1.662410 0.009223
v 1.815682 1.655382 0.016603
v 1.815682 1.657378 0.012075
v 1.815682 1.662099 0.023790
v 1.815682 1.657185 0.021077
v 1.815682 1.668558 0.009137
v 1.815682 1.673471 0.011849
v 1.815682 1.675275 0.016324
v 1.815682 1.673279 0.020852
v 1.806218 1.654913 0.016697
v 1.806218 1.675743 0.016229
v 1.806218 1.661887 0.024078
v 1.806218 1.668770 0.008848
v 1.806218 1.673616 0.020935
v 1.806218 1.657040 0.011991
v 1.806218 1.656764 0.021314
v 1.806218 1.673892 0.011612
v 1.806218 1.668324 0.023934
v 1.806218 1.662333 0.008993
v 1.804057 1.673263 0.020953
v 1.804057 1.657393 0.011973
v 1.804057 1.657262 0.021342
v 1.804057 1.673534 0.011576
v 1.804057 1.668192 0.023973
v 1.804057 1.662465 0.008953
v 1.804057 1.655214 0.016717
v 1.804057 1.675303 0.016218
v 1.804057 1.662027 0.024125
v 1.804057 1.668630 0.008801
v 1.778941 1.673497 0.021543
v 1.778941 1.657160 0.011384
v 1.778941 1.656987 0.021759
v 1.778941 1.673670 0.011167
v 1.778941 1.668341 0.024816
v 1.778941 1.662315 0.008111
v 1.778941 1.655124 0.016597
v 1.778941 1.675532 0.016329
v 1.778941 1.662035 0.024898
v 1.778941 1.668622 0.008028
v 1.823030 1.659367 0.012984
v 1.823030 1.659221 0.020804
v 1.823030 1.671436 0.012769
v 1.823030 1.671290 0.020589
v 1.823030 1.667515 0.023272
v 1.823030 1.663141 0.010301
v 1.823030 1.657869 0.016700
v 1.823030 1.662905 0.023354
v 1.823030 1.667751 0.010219
v 1.823030 1.672787 0.016330
v 1.819084 1.667909 0.023488
v 1.819084 1.662748 0.009439
v 1.819084 1.656530 0.016599
v 1.819084 1.662471 0.023572
v 1.819084 1.668185 0.009354
v 1.819084 1.674127 0.016327
v 1.819084 1.658296 0.012206
v 1.819084 1.658125 0.020941
v 1.819084 1.672532 0.011986
v 1.819084 1.672361 0.020720
v 1.828546 1.660203 0.013550
v 1.828546 1.660077 0.019638
v 1.828546 1.670579 0.013391
v 1.828546 1.670453 0.019480
v 1.828546 1.667208 0.021442
v 1.828546 1.663448 0.011587
v 1.828546 1.658915 0.016664
v 1.828546 1.663244 0.021503
v 1.828546 1.667412 0.011527
v 1.828546 1.671741 0.016469
v 1.835541 1.665280 0.017157
v 1.834062 1.670695 0.016504
v 1.835541 1.665357 0.017154
v 1.835541 1.665419 0.017062
v 1.835541 1.665435 0.016967
v 1.834062 1.659961 0.016629
v 1.834062 1.661039 0.014659
v 1.834062 1.663756 0.013417
v 1.834062 1.667073 0.013378
v 1.834062 1.669723 0.014557
v 1.835541 1.665220 0.017069
v 1.835541 1.665204 0.016968
v 1.835541 1.665238 0.016818
v 1.835541 1.665290 0.016740
v 1.835541 1.665355 0.016738
v 1.835541 1.665406 0.016811
v 1.877427 1.663592 0.015491
v 1.877427 1.663323 0.015024
v 1.877427 1.664596 0.013856
v 1.877427 1.664696 0.014483
v 1.877427 1.666186 0.013854
v 1.877427 1.666093 0.014376
v 1.834062 1.661719 0.015196
v 1.834062 1.660255 0.017217
v 1.834062 1.664013 0.014147
v 1.834062 1.666833 0.014114
v 1.834062 1.669034 0.015093
v 1.834062 1.670316 0.017196
v 1.877427 1.667457 0.014557
v 1.877427 1.667186 0.015024
v 1.877427 1.662776 0.016629
v 1.877427 1.668823 0.016086
v 1.877427 1.662930 0.016948
v 1.877427 1.668459 0.016235
v 1.923392 1.665313 0.014921
v 1.923392 1.665039 0.015173
v 1.923392 1.665635 0.015033
v 1.923392 1.665335 0.015056
v 1.923392 1.664922 0.015518
v 1.923392 1.665929 0.015072
v 1.923392 1.665655 0.014921
v 1.923392 1.665097 0.015273
v 1.923392 1.664955 0.015587
v 1.923392 1.666144 0.015433
v 1.923392 1.665870 0.015173
v 1.923392 1.666223 0.015401
vn 0.0519 -0.9111 -0.4089
vn 0.0301 -0.4772 0.8783
vn 0.0301 0.4772 -0.8783
vn 0.0519 0.9111 0.4089
vn 0.0303 0.4955 0.8681
vn 0.0303 -0.4955 -0.8681
vn 0.0527 -0.9279 0.3692
vn 0.0527 0.9279 -0.3692
vn 0.0197 0.0229 0.9995
vn 0.0197 -0.0229 -0.9995
vn 0.0168 -0.5678 -0.8230
vn 0.0168 0.5678 0.8230
vn 0.0175 0.9396 0.3419
vn 0.0174 0.5561 -0.8309
vn 0.0174 -0.5561 0.8309
vn 0.0175 -0.9396 -0.3419
vn 0.0167 -0.0191 -0.9997
vn 0.0167 0.0191 0.9997
vn 0.0179 0.9494 -0.3137
vn 0.0179 -0.9494 0.3137
vn 0.2581 0.4574 0.8510
vn 0.2729 -0.4554 -0.8474
vn 0.1940 -0.9000 0.3903
vn 0.1973 0.9023 -0.3832
vn 0.3003 0.0130 0.9538
vn 0.3165 -0.0129 -0.9485
vn 0.1921 -0.8898 -0.4140
vn 0.2660 -0.4468 0.8542
vn 0.2808 0.4449 -0.8504
vn 0.1885 0.8871 0.4213
vn 0.9039 -0.1811 0.3876
vn 0.1868 -0.9094 0.3717
vn 0.1868 0.9094 -0.3717
vn 0.3077 0.0084 0.9515
vn 0.3084 -0.0090 -0.9512
vn 0.1964 -0.8988 -0.3919
vn 0.2634 -0.4679 0.8436
vn 0.2765 0.4762 -0.8347
vn 0.1964 0.8988 0.3919
vn 0.2750 0.4716 0.8379
vn 0.2749 -0.4716 -0.8379
vn 0.0259 -0.9400 0.3402
vn 0.0259 0.9400 -0.3402
vn -0.0388 0.0129 0.9992
vn -0.0388 -0.0129 -0.9992
vn 0.0255 -0.9309 -0.3643
vn -0.0164 -0.5270 0.8497
vn -0.0164 0.5270 -0.8497
vn 0.0255 0.9309 0.3643
vn -0.0159 0.5348 0.8448
vn -0.0159 -0.5348 -0.8448
vn -0.2587 -0.9205 0.2930
vn -0.2587 0.9205 -0.2930
vn -0.1453 0.0172 0.9892
vn -0.1453 -0.0172 -0.9892
vn -0.2475 -0.9152 -0.3182
vn -0.1951 -0.5622 0.8036
vn -0.1951 0.5622 -0.8036
vn -0.2475 0.9152 0.3182
vn -0.1786 0.5737 0.7994
vn -0.1786 -0.5737 -0.7994
vn 0.2359 -0.0186 -0.9716
vn 0.2359 0.0186 0.9716
vn 0.2524 0.9188 -0.3036
vn 0.2524 -0.9188 0.3036
vn 0.2370 -0.5517 -0.7997
vn 0.2370 0.5517 0.7997
vn 0.2469 0.9106 0.3314
vn 0.2450 0.5393 -0.8057
vn 0.2450 -0.5393 0.8057
vn 0.2469 -0.9106 -0.3314
vn 0.0895 -0.9359 -0.3406
vn 0.0888 -0.5540 0.8278
vn 0.0888 0.5540 -0.8278
vn 0.0895 0.9359 0.3406
vn 0.0857 0.5658 0.8201
vn 0.0858 -0.5658 -0.8201
vn 0.0917 -0.9455 0.3124
vn 0.0917 0.9455 -0.3124
vn 0.0854 0.0190 0.9962
vn 0.0854 -0.0190 -0.9962
vn 0.2081 -0.5193 -0.8289
vn 0.1831 0.5058 0.8430
vn 0.1753 0.9126 0.3694
vn 0.1873 0.5249 -0.8303
vn 0.1814 -0.5025 0.8453
vn 0.1254 -0.9345 -0.3330
vn 0.1865 -0.0065 -0.9824
vn 0.1870 0.0065 0.9823
vn 0.1743 0.9187 -0.3543
vn 0.1240 -0.9403 0.3168
vn 0.0261 0.9139 0.4051
vn 0.0500 0.4811 -0.8753
vn 0.0500 -0.4811 0.8753
vn 0.0261 -0.9139 -0.4050
vn 0.0344 -0.0187 -0.9992
vn 0.0344 0.0187 0.9992
vn 0.0476 0.9278 -0.3701
vn 0.0476 -0.9278 0.3701
vn 0.0205 -0.4957 -0.8682
vn 0.0205 0.4957 0.8682
vn 0.0200 -0.0235 -0.9995
vn 0.0200 0.0235 0.9995
vn -0.1657 0.9184 -0.3592
vn -0.1637 -0.9089 0.3835
vn -0.0449 -0.5017 -0.8639
vn -0.0449 0.5017 0.8639
vn -0.1650 0.9023 0.3983
vn -0.0390 0.4832 -0.8746
vn -0.0571 -0.4885 0.8707
vn -0.1366 -0.9014 -0.4108
vn 0.0114 -0.9208 -0.3898
vn 0.0230 -0.5166 0.8559
vn 0.0215 0.5107 -0.8595
vn 0.0138 0.9253 0.3791
vn 0.0283 0.5239 0.8513
vn 0.0283 -0.5239 -0.8513
vn 0.0089 -0.9286 0.3710
vn 0.0089 0.9377 -0.3474
vn 0.0322 0.0188 0.9993
vn 0.0322 -0.0188 -0.9993
vn 0.0788 -0.0163 -0.9968
vn 0.0788 0.0163 0.9968
vn 0.0594 0.9439 -0.3247
vn 0.0594 -0.9439 0.3247
vn 0.0685 -0.5520 -0.8310
vn 0.0685 0.5520 0.8310
vn 0.0560 0.9346 0.3512
vn 0.0739 0.5418 -0.8373
vn 0.0739 -0.5418 0.8373
vn 0.0560 -0.9346 -0.3512
vn 0.2799 0.8983 0.3388
vn 0.2702 0.5220 -0.8091
vn 0.1414 -0.5367 0.8319
vn 0.3090 -0.8823 -0.3551
vn 0.2137 -0.0162 -0.9768
vn 0.0548 0.0165 0.9984
vn 0.3082 0.8914 -0.3323
vn 0.2811 -0.9061 0.3161
vn 0.2659 -0.5324 -0.8036
vn 0.1378 0.5470 0.8257
vn 0.1366 0.5049 0.8523
vn 0.1366 -0.5049 -0.8523
vn 0.2817 -0.8953 0.3451
vn 0.2817 0.8953 -0.3451
vn 0.0635 0.0147 0.9979
vn 0.0635 -0.0147 -0.9979
vn 0.2759 -0.8857 -0.3734
vn 0.1400 -0.4949 0.8576
vn 0.1400 0.4949 -0.8576
vn 0.2759 0.8857 0.3734
vn 0.1875 0.9173 0.3514
vn 0.2016 0.5305 -0.8234
vn 0.2773 -0.5203 0.8077
vn 0.1735 -0.9119 -0.3719
vn 0.2289 -0.0162 -0.9733
vn 0.3164 0.0158 0.9485
vn 0.1826 0.9195 -0.3481
vn 0.1951 -0.9242 0.3282
vn 0.1935 -0.5414 -0.8182
vn 0.2691 0.5315 0.8032
vn 0.9509 -0.2794 0.1328
vn 0.9480 0.2823 0.1471
vn 0.8698 -0.0060 -0.4934
vn 0.8989 0.1897 0.3951
vn 1.0000 -0.0000 -0.0000
vn 0.0266 -0.5170 -0.8556
vn 0.0505 -0.8022 0.5950
vn 0.0369 0.8291 -0.5579
vn -0.0092 0.0327 0.9994
vn 0.0552 -0.9090 -0.4132
vn 0.8996 0.1848 -0.3956
vn 0.9343 -0.2936 -0.2024
vn 0.8674 0.0061 0.4975
vn 0.9394 0.2965 -0.1721
vn 0.8932 -0.1946 -0.4054
vn 0.0525 -0.9000 0.4327
vn 0.0364 -0.9459 -0.3224
vn -0.0186 0.6742 0.7383
vn 0.0352 0.3790 0.9247
vn -0.0135 0.0765 0.9970
vn 1.0000 -0.0000 -0.0001
vn -0.0178 -0.4421 0.8968
vn -0.0479 0.8548 0.5167
vn 0.0105 -0.0083 -0.9999
vn -0.0299 -0.7872 0.6160
vn -0.0241 0.5158 0.8564
vn 0.0207 0.4327 -0.9013
vn 0.0357 0.5969 0.8015
vn -0.0221 -0.6888 0.7246
vn 0.0259 0.4843 -0.8745
vn 0.0322 0.7452 -0.6661
vn 0.0232 -0.0013 -0.9997
vn 0.0276 -0.6762 -0.7362
vn -0.0174 -0.5101 0.8599
vn -0.0278 0.9099 0.4139
vt 0.500000 0.000000
vt 0.793893 0.095491
vt 0.024472 0.345491
vt 0.206107 0.095491
vt 0.024472 0.345491
vt 0.975528 0.654508
vt 0.793893 0.904508
vt 0.500000 1.000000
vt 0.206107 0.904508
vt 0.024472 0.654508
vt 0.024472 0.654508
vt 0.975528 0.345492
vt 0.975528 0.345491
vt 0.975528 0.345491
vt 0.793893 0.095491
vt 0.411172 0.028862
vt 0.396835 0.966480
vt 0.500000 0.000000
vt 0.500000 1.000000
vt 0.793893 0.904509
vt 0.975528 0.345491
vt 0.206107 0.904509
vt 0.206107 0.904509
vt 0.206107 0.095491
vt 0.793893 0.904508
vt 0.975528 0.654508
vt 0.975528 0.345491
vt 0.206107 0.904509
vt 0.975528 0.654508
vt 0.793893 0.904509
vt 0.975528 0.654509
vt 0.793893 0.095491
vt 0.891512 0.370903
vt 0.891512 0.633649
vt 0.261912 0.840267
vt 0.108488 0.629097
vt 0.108488 0.366351
vt 0.259324 0.158743
vt 0.497183 0.081458
vt 0.738088 0.159733
vt 0.740676 0.841257
vt 0.502817 0.918542
vt 0.514063 0.067819
vt 0.517148 0.025095
vt 0.903206 0.637562
vt 0.903353 0.366276
vt 0.745034 0.148583
vt 0.518638 0.929831
vt 0.746801 0.852424
vt 0.787410 0.107280
vt 0.963687 0.350118
vt 0.963834 0.650596
vt 0.788203 0.892891
vt 0.518776 0.977233
s 0
f 111/1/1 116/2/1 17/2/1 16/1/1
f 113/3/2 117/4/2 15/4/2 14/5/2
f 114/6/3 118/7/3 20/7/3 19/6/3
f 112/8/4 115/9/4 11/9/4 12/8/4
f 115/9/5 119/10/5 13/11/5 11/9/5
f 116/2/6 120/12/6 18/13/6 17/2/6
f 117/4/7 111/1/7 16/1/7 15/4/7
f 118/7/8 112/8/8 12/8/8 20/7/8
f 119/10/9 113/3/9 14/5/9 13/11/9
f 120/12/10 114/6/10 19/6/10 18/13/10
f 55/2/11 51/14/11 8/13/11 7/2/11
f 56/9/12 52/11/12 3/11/12 2/9/12
f 57/8/13 56/9/13 2/9/13 1/8/13
f 58/6/14 53/7/14 10/7/14 9/6/14
f 59/3/15 54/4/15 5/4/15 4/5/15
f 60/1/16 55/2/16 7/2/16 6/1/16
f 51/14/17 58/6/17 9/6/17 8/13/17
f 52/11/18 59/3/18 4/5/18 3/11/18
f 53/7/19 57/8/19 1/8/19 10/7/19
f 54/4/20 60/1/20 6/1/20 5/4/20
f 164/9/21 165/11/21 23/11/21 21/9/21
f 161/15/22 166/12/22 178/13/22 177/2/22
f 162/4/23 167/1/23 176/1/23 194/16/23 25/4/23
f 163/7/24 170/8/24 172/8/24 180/7/24
f 165/11/25 168/3/25 24/5/25 23/11/25
f 166/12/26 169/6/26 179/6/26 178/13/26
f 167/1/27 161/15/27 177/2/27 176/1/27
f 168/3/28 162/4/28 25/4/28 24/5/28
f 169/6/29 163/7/29 180/7/29 179/6/29
f 170/8/30 164/9/30 21/9/30 198/17/30 172/8/30
f 24/5/31 25/4/31 181/4/31 171/5/31
f 90/4/32 86/18/32 40/1/32 38/4/32
f 89/7/33 83/19/33 35/8/33 36/20/33
f 88/11/34 85/3/34 39/3/34 33/11/34
f 87/21/35 84/6/35 37/6/35 31/21/35
f 86/18/36 81/2/36 32/2/36 40/1/36
f 85/3/37 90/4/37 38/4/37 39/3/37
f 84/6/38 89/7/38 36/20/38 37/6/38
f 83/19/39 82/22/39 34/23/39 35/8/39
f 82/22/40 88/11/40 33/11/40 34/23/40
f 81/2/41 87/21/41 31/21/41 32/2/41
f 38/4/42 40/1/42 50/1/42 44/24/42
f 36/20/43 35/8/43 47/8/43 43/25/43
f 33/11/44 39/3/44 49/3/44 42/11/44
f 31/21/45 37/6/45 48/26/45 41/27/45
f 40/1/46 32/2/46 45/2/46 50/1/46
f 39/3/47 38/4/47 44/24/47 49/3/47
f 37/6/48 36/20/48 43/25/48 48/26/48
f 35/8/49 34/23/49 46/9/49 47/8/49
f 34/23/50 33/11/50 42/11/50 46/9/50
f 32/2/51 31/21/51 41/27/51 45/2/51
f 44/24/52 50/1/52 60/1/52 54/4/52
f 43/25/53 47/8/53 57/8/53 53/7/53
f 42/11/54 49/3/54 59/3/54 52/11/54
f 41/27/55 48/26/55 58/6/55 51/14/55
f 50/1/56 45/2/56 55/2/56 60/1/56
f 49/3/57 44/24/57 54/4/57 59/3/57
f 48/26/58 43/25/58 53/7/58 58/6/58
f 47/8/59 46/9/59 56/9/59 57/8/59
f 46/9/60 42/11/60 52/11/60 56/9/60
f 45/2/61 41/27/61 51/14/61 55/2/61
f 76/13/62 80/6/62 70/6/62 69/13/62
f 75/11/63 79/5/63 68/5/63 67/11/63
f 74/7/64 78/8/64 66/8/64 65/7/64
f 73/4/65 77/1/65 64/1/65 63/4/65
f 72/2/66 76/13/66 69/13/66 62/2/66
f 71/9/67 75/11/67 67/11/67 61/9/67
f 78/8/68 71/9/68 61/9/68 66/8/68
f 80/6/69 74/7/69 65/7/69 70/6/69
f 79/5/70 73/4/70 63/4/70 68/5/70
f 77/1/71 72/2/71 62/2/71 64/1/71
f 6/1/72 7/2/72 72/2/72 77/1/72
f 4/5/73 5/4/73 73/4/73 79/5/73
f 9/6/74 10/7/74 74/7/74 80/6/74
f 1/8/75 2/9/75 71/9/75 78/8/75
f 2/9/76 3/11/76 75/11/76 71/9/76
f 7/2/77 8/13/77 76/13/77 72/2/77
f 5/4/78 6/1/78 77/1/78 73/4/78
f 10/7/79 1/8/79 78/8/79 74/7/79
f 3/11/80 4/5/80 79/5/80 75/11/80
f 8/13/81 9/6/81 80/6/81 76/13/81
f 91/2/82 97/21/82 87/21/82 81/2/82
f 92/28/83 98/11/83 88/11/83 82/22/83
f 93/8/84 92/28/84 82/22/84 83/19/84
f 94/6/85 99/7/85 89/7/85 84/6/85
f 95/3/86 100/4/86 90/4/86 85/3/86
f 96/1/87 91/2/87 81/2/87 86/18/87
f 97/21/88 94/6/88 84/6/88 87/21/88
f 98/11/89 95/3/89 85/3/89 88/11/89
f 99/7/90 93/8/90 83/19/90 89/7/90
f 100/4/91 96/1/91 86/18/91 90/4/91
f 12/8/92 11/9/92 110/9/92 109/8/92
f 19/6/93 20/7/93 108/7/93 107/6/93
f 14/5/94 15/4/94 106/4/94 105/3/94
f 16/1/95 17/2/95 104/2/95 103/1/95
f 18/13/96 19/6/96 107/6/96 102/12/96
f 13/11/97 14/5/97 105/3/97 101/11/97
f 20/7/98 12/8/98 109/8/98 108/7/98
f 15/4/99 16/1/99 103/1/99 106/4/99
f 17/2/100 18/13/100 102/12/100 104/2/100
f 11/9/101 13/11/101 101/11/101 110/9/101
f 126/12/102 130/29/102 114/6/102 120/12/102
f 125/10/103 129/3/103 113/3/103 119/10/103
f 124/30/104 128/8/104 112/8/104 118/7/104
f 123/4/105 127/1/105 111/1/105 117/4/105
f 122/2/106 126/12/106 120/12/106 116/2/106
f 121/9/107 125/10/107 119/10/107 115/9/107
f 128/8/108 121/9/108 115/9/108 112/8/108
f 130/29/109 124/30/109 118/7/109 114/6/109
f 129/3/110 123/4/110 117/4/110 113/3/110
f 127/1/111 122/2/111 116/2/111 111/1/111
f 137/1/112 132/2/112 122/2/112 127/1/112
f 139/3/113 133/4/113 123/4/113 129/3/113
f 140/6/114 134/20/114 124/30/114 130/29/114
f 138/8/115 131/9/115 121/9/115 128/8/115
f 131/9/116 135/11/116 125/10/116 121/9/116
f 132/2/117 136/12/117 126/12/117 122/2/117
f 133/4/118 137/1/118 127/1/118 123/4/118
f 134/20/119 138/8/119 128/8/119 124/30/119
f 135/11/120 139/3/120 129/3/120 125/10/120
f 136/12/121 140/6/121 130/29/121 126/12/121
f 69/13/122 70/6/122 140/6/122 136/12/122
f 67/11/123 68/5/123 139/3/123 135/11/123
f 65/7/124 66/8/124 138/8/124 134/20/124
f 63/4/125 64/1/125 137/1/125 133/4/125
f 62/2/126 69/13/126 136/12/126 132/2/126
f 61/9/127 67/11/127 135/11/127 131/9/127
f 66/8/128 61/9/128 131/9/128 138/8/128
f 70/6/129 65/7/129 134/20/129 140/6/129
f 68/5/130 63/4/130 133/4/130 139/3/130
f 64/1/131 62/2/131 132/2/131 137/1/131
f 156/8/132 160/9/132 144/9/132 150/8/132
f 155/6/133 159/7/133 143/7/133 149/31/133
f 154/3/134 158/4/134 142/4/134 148/3/134
f 153/1/135 157/15/135 141/32/135 147/1/135
f 152/12/136 155/6/136 149/31/136 146/12/136
f 151/11/137 154/3/137 148/3/137 145/11/137
f 159/7/138 156/8/138 150/8/138 143/7/138
f 158/4/139 153/1/139 147/1/139 142/4/139
f 157/15/140 152/12/140 146/12/140 141/32/140
f 160/9/141 151/11/141 145/11/141 144/9/141
f 110/9/142 101/11/142 151/11/142 160/9/142
f 104/2/143 102/12/143 152/12/143 157/15/143
f 106/4/144 103/1/144 153/1/144 158/4/144
f 108/7/145 109/8/145 156/8/145 159/7/145
f 101/11/146 105/3/146 154/3/146 151/11/146
f 102/12/147 107/6/147 155/6/147 152/12/147
f 103/1/148 104/2/148 157/15/148 153/1/148
f 105/3/149 106/4/149 158/4/149 154/3/149
f 107/6/150 108/7/150 159/7/150 155/6/150
f 109/8/151 110/9/151 160/9/151 156/8/151
f 150/8/152 144/9/152 164/9/152 170/8/152
f 149/31/153 143/7/153 163/7/153 169/6/153
f 148/3/154 142/4/154 162/4/154 168/3/154
f 147/1/155 141/32/155 161/15/155 167/1/155
f 146/12/156 149/31/156 169/6/156 166/12/156
f 145/11/157 148/3/157 168/3/157 165/11/157
f 143/7/158 150/8/158 170/8/158 163/7/158
f 142/4/159 147/1/159 167/1/159 162/4/159
f 141/32/160 146/12/160 166/12/160 161/15/160
f 144/9/161 145/11/161 165/11/161 164/9/161
f 25/4/162 194/16/162 182/16/162 181/4/162
f 198/17/163 21/9/163 174/9/163 175/17/163
f 195/33/164 196/34/164 185/34/164 184/33/164
f 21/9/165 23/11/165 173/11/165 174/9/165
f 174/35/166 173/36/166 171/37/166 181/38/166 182/39/166 183/40/166 184/33/166 185/34/166 186/41/166 175/42/166
f 177/2/167 178/13/167 189/13/167 188/2/167
f 26/43/168 176/44/168 201/44/168 203/43/168
f 180/7/169 172/8/169 202/8/169 199/7/169
f 29/45/170 28/46/170 190/46/170 192/45/170
f 176/1/171 177/2/171 188/2/171 201/1/171
f 196/34/172 197/41/172 186/41/172 185/34/172
f 194/39/173 193/40/173 183/40/173 182/39/173
f 23/11/174 24/5/174 171/5/174 173/11/174
f 197/41/175 198/42/175 175/42/175 186/41/175
f 193/40/176 195/33/176 184/33/176 183/40/176
f 203/43/177 201/44/177 209/44/177 213/43/177
f 201/1/178 188/2/178 206/2/178 209/1/178
f 190/46/179 187/47/179 212/47/179 208/46/179
f 202/8/180 204/48/180 214/48/180 216/8/180
f 192/45/181 190/46/181 208/46/181 207/45/181
f 26/43/166 27/47/166 193/40/166 194/39/166
f 27/47/182 28/46/182 195/33/182 193/40/182
f 28/46/166 29/45/166 196/34/166 195/33/166
f 29/45/166 30/49/166 197/41/166 196/34/166
f 30/49/166 22/48/166 198/42/166 197/41/166
f 22/48/166 172/8/166 198/42/166
f 176/44/166 26/43/166 194/39/166
f 30/49/183 29/45/183 192/45/183 200/49/183
f 27/47/184 26/43/184 203/43/184 187/47/184
f 178/13/185 179/6/185 191/6/185 189/13/185
f 22/48/186 30/49/186 200/49/186 204/48/186
f 28/46/187 27/47/187 187/47/187 190/46/187
f 179/6/188 180/7/188 199/7/188 191/6/188
f 172/8/189 22/48/189 204/48/189 202/8/189
f 212/47/166 213/43/166 209/44/166 206/50/166
f 208/46/166 212/47/166 206/50/166 205/51/166
f 207/45/166 208/46/166 205/51/166 211/52/166
f 215/49/166 207/45/166 211/52/166 210/53/166
f 214/48/166 215/49/166 210/53/166 216/54/166
f 204/48/190 200/49/190 215/49/190 214/48/190
f 191/6/191 199/7/191 210/7/191 211/6/191
f 199/7/192 202/8/192 216/8/192 210/7/192
f 189/13/193 191/6/193 211/6/193 205/13/193
f 188/2/194 189/13/194 205/13/194 206/2/194
f 200/49/195 192/45/195 207/45/195 215/49/195
f 187/47/196 203/43/196 213/43/196 212/47/196
